<svg width="28" height="25" viewBox="0 0 28 25" fill="none" xmlns="http://www.w3.org/2000/svg">
<g filter="url(#filter0_di)">
<path d="M25.258 21.4131H21.3487C21.1852 21.4131 21.0508 21.2854 21.0363 21.1226C21.0317 21.0711 21.0267 21.0211 21.0214 20.9726C20.7973 18.9298 18.5982 17.1753 16.5583 17.4238C15.0692 17.6052 13.8351 18.7293 12.3445 18.8976C11.3393 19.0111 10.4621 18.9594 9.4596 18.7629C8.58088 18.5908 7.73267 18.2757 6.95196 17.8372C5.11316 16.8044 4.12598 15.741 3.21068 14.1387C2.68095 13.2114 2.30298 12.1958 2.16546 11.1368C2.05165 10.2603 2.05886 9.48795 2.15442 8.63733C2.3004 7.33791 2.71678 6.07315 3.39637 4.95602C4.35043 3.38771 5.3816 2.41256 7.0616 1.49974C7.77315 1.11312 8.53866 0.830477 9.32961 0.656774C11.3324 0.21694 12.629 0.345821 14.5759 0.956042C15.6591 1.29554 16.8356 2.02295 17.8362 2.97225C20.0243 5.04817 20.1911 8.30585 20.2464 11.3215C20.2516 11.601 19.996 11.8125 19.7209 11.7627C18.3696 11.5184 17.3981 11.4987 16.0703 11.7098C15.7143 11.7664 15.4214 11.398 15.5175 11.0506C15.5591 10.8998 15.5918 10.7518 15.6163 10.6059C16.0088 8.2711 14.4111 5.60599 12.0547 5.37632C10.718 5.24604 9.39431 5.79182 8.41381 6.88642C7.82862 7.43808 7.50493 8.30341 7.40283 9.22616C7.13827 11.6173 9.09405 13.9295 11.497 14.0439C11.9555 14.0657 12.3982 13.999 12.8505 13.8457C14.2759 13.3625 15.6654 12.6404 17.1662 12.7534C21.6812 13.0934 24.8523 15.1289 25.6866 20.9218C25.724 21.1814 25.5203 21.4131 25.258 21.4131Z" fill="#FAFAFA"/>
</g>
<defs>
<filter id="filter0_di" x="0.449056" y="0.396362" width="26.8744" height="24.2814" filterUnits="userSpaceOnUse" color-interpolation-filters="sRGB">
<feFlood flood-opacity="0" result="BackgroundImageFix"/>
<feColorMatrix in="SourceAlpha" type="matrix" values="0 0 0 0 0 0 0 0 0 0 0 0 0 0 0 0 0 0 127 0"/>
<feOffset dy="1.63237"/>
<feGaussianBlur stdDeviation="0.816183"/>
<feColorMatrix type="matrix" values="0 0 0 0 0 0 0 0 0 0 0 0 0 0 0 0 0 0 0.07 0"/>
<feBlend mode="normal" in2="BackgroundImageFix" result="effect1_dropShadow"/>
<feBlend mode="normal" in="SourceGraphic" in2="effect1_dropShadow" result="shape"/>
<feColorMatrix in="SourceAlpha" type="matrix" values="0 0 0 0 0 0 0 0 0 0 0 0 0 0 0 0 0 0 127 0" result="hardAlpha"/>
<feOffset dy="1.63237"/>
<feGaussianBlur stdDeviation="1.02023"/>
<feComposite in2="hardAlpha" operator="arithmetic" k2="-1" k3="1"/>
<feColorMatrix type="matrix" values="0 0 0 0 0.219608 0 0 0 0 0.533333 0 0 0 0 1 0 0 0 0.13 0"/>
<feBlend mode="normal" in2="shape" result="effect2_innerShadow"/>
</filter>
</defs>
</svg>
